# xmcd CD Database Entry
#
# Track frame offsets:
# 182
# 20780
# 42677
# 65365
# 85875
# 104705
# 124570
# 149392
# 173952
# 193325
# 214657
# 237060
#
# Disc length: 3359 seconds
#
# Revision: 3
# Processed by: cddbd v1.4PL0 Copyright (c) Steve Scherf et al.
# Submitted via: tcd 2.0b
#
DISCID=b50d1d0c
DTITLE=Alex y su Orquesta - Los Años Dorados
DYEAR=1900
DGENRE=
TTITLE0=Querida
TTITLE1=Colegiala
TTITLE2=Que cara mas bonita
TTITLE3=A donde vayas
TTITLE4=La radio
TTITLE5=Amor divino
TTITLE6=El jardin prohibido
TTITLE7=Me va, me va
TTITLE8=Una paloma blanca
TTITLE9=Quien de riza el pelo
TTITLE10=Quiero conocerte
TTITLE11=La mas querida
EXTD=
EXTT0=
EXTT1=
EXTT2=
EXTT3=
EXTT4=
EXTT5=
EXTT6=
EXTT7=
EXTT8=
EXTT9=
EXTT10=
EXTT11=
PLAYORDER=
